<svg xmlns="http://www.w3.org/2000/svg" version="1.1" x="0" y="0" viewBox="0 0 420 852" xml:space="preserve"><style>.s0{fill:#DCE1E6;}</style><path d="M416 182V60c0-33.1-26.9-60-60-60H64C30.9 0 4 26.9 4 60v48c-2.2 0-4 1.8-4 4v26c0 2.2 1.8 4 4 4v40c-2.2 0-4 1.8-4 4v52c0 2.2 1.8 4 4 4v20c-2.2 0-4 1.8-4 4v52c0 2.2 1.8 4 4 4v470c0 33.1 26.9 60 60 60h292c33.1 0 60-26.9 60-60V242c2.2 0 4-1.8 4-4v-52C420 183.8 418.2 182 416 182zM390 747H30V105h360V747z" fill="#EEF1F4"/><path d="M152 55.5c0 4.1-3.4 7.5-7.5 7.5s-7.5-3.4-7.5-7.5 3.4-7.5 7.5-7.5S152 51.4 152 55.5z" fill="#DCE1E6"/><path d="M215 28c0 2.8-2.2 5-5 5s-5-2.2-5-5 2.2-5 5-5S215 25.2 215 28z" fill="#DCE1E6"/><path d="M246 55.5c0 1.9-1.6 3.5-3.5 3.5h-65c-1.9 0-3.5-1.6-3.5-3.5s1.6-3.5 3.5-3.5h65C244.4 52 246 53.6 246 55.5z" fill="#DCE1E6"/><path d="M243 796c0 18.2-14.8 33-33 33s-33-14.8-33-33 14.8-33 33-33S243 777.8 243 796z" style="fill:#EEF1F4;stroke-width:1.5;stroke:#DCE1E6"/></svg>
